<svg preserveAspectRatio="none" width="100%" height="100%" overflow="visible" style="display: block;" viewBox="0 0 366.921 203.5" fill="none" xmlns="http://www.w3.org/2000/svg">
<g id="Ellipse 1" filter="url(#filter0_d_70_108)">
<path d="M23.6001 183.5C21.59 183.5 19.9562 181.87 20.0009 179.86C20.4513 159.629 24.654 139.646 32.4061 120.931C40.6227 101.095 52.6661 83.0704 67.8484 67.888C83.0308 52.7057 101.055 40.6623 120.892 32.4457C140.728 24.229 161.989 20 183.46 20C204.932 20 226.192 24.2291 246.029 32.4457C265.866 40.6624 283.89 52.7057 299.072 67.8881C314.255 83.0704 326.298 101.095 334.515 120.931C342.267 139.646 346.469 159.629 346.92 179.86C346.965 181.87 345.331 183.5 343.321 183.5V183.5C341.31 183.5 339.685 181.87 339.638 179.861C339.189 160.585 335.176 141.549 327.789 123.717C319.938 104.763 308.431 87.5419 293.925 73.0355C279.419 58.529 262.197 47.0219 243.243 39.1711C224.29 31.3203 203.976 27.2795 183.46 27.2795C162.945 27.2795 142.631 31.3203 123.677 39.1711C104.724 47.0219 87.5023 58.529 72.9958 73.0354C58.4894 87.5418 46.9823 104.763 39.1315 123.717C31.7452 141.549 27.7315 160.585 27.2823 179.86C27.2355 181.87 25.6103 183.5 23.6001 183.5V183.5Z" fill="var(--fill-0, white)"/>
</g>
<defs>
<filter id="filter0_d_70_108" x="3.91155e-07" y="0" width="366.921" height="203.5" filterUnits="userSpaceOnUse" color-interpolation-filters="sRGB">
<feFlood flood-opacity="0" result="BackgroundImageFix"/>
<feColorMatrix in="SourceAlpha" type="matrix" values="0 0 0 0 0 0 0 0 0 0 0 0 0 0 0 0 0 0 127 0" result="hardAlpha"/>
<feOffset/>
<feGaussianBlur stdDeviation="10"/>
<feComposite in2="hardAlpha" operator="out"/>
<feColorMatrix type="matrix" values="0 0 0 0 0 0 0 0 0 0.537255 0 0 0 0 0.768627 0 0 0 0.12 0"/>
<feBlend mode="normal" in2="BackgroundImageFix" result="effect1_dropShadow_70_108"/>
<feBlend mode="normal" in="SourceGraphic" in2="effect1_dropShadow_70_108" result="shape"/>
</filter>
</defs>
</svg>
