<svg preserveAspectRatio="none" width="100%" height="100%" overflow="visible" style="display: block;" viewBox="0 0 252.218 163.5" fill="none" xmlns="http://www.w3.org/2000/svg">
<path id="Ellipse 2" d="M3.43057 163.5C1.51605 163.5 -0.0398071 161.948 0.000776322 160.033C0.601436 131.704 8.55592 103.995 23.1106 79.636C38.2585 54.2848 59.9899 33.5097 85.9967 19.5172C112.003 5.5247 141.315 -1.16264 170.817 0.165444C199.164 1.44152 226.67 10.0718 250.642 25.1806C252.262 26.2014 252.7 28.3552 251.645 29.9529V29.9529C250.59 31.5505 248.441 31.9868 246.821 30.9675C223.895 16.5479 197.601 8.31126 170.505 7.0915C142.254 5.81974 114.186 12.2235 89.2816 25.6226C64.3776 39.0218 43.5677 58.916 29.0622 83.1922C15.1498 106.476 7.53502 132.956 6.93548 160.033C6.8931 161.947 5.34508 163.5 3.43057 163.5V163.5Z" fill="var(--fill-0, #0089C4)"/>
</svg>
