<svg preserveAspectRatio="none" width="100%" height="100%" overflow="visible" style="display: block;" viewBox="0 0 24 24" fill="none" xmlns="http://www.w3.org/2000/svg">
<g id="Frame">
<path id="Vector" d="M21.174 6.812C21.7027 6.28342 21.9998 5.56647 21.9999 4.81885C22 4.07124 21.7031 3.35421 21.1745 2.8255C20.6459 2.29679 19.929 1.99971 19.1814 1.99962C18.4337 1.99953 17.7167 2.29642 17.188 2.825L3.842 16.174C3.60982 16.4055 3.43811 16.6905 3.342 17.004L2.021 21.356C1.99516 21.4425 1.9932 21.5343 2.01535 21.6219C2.0375 21.7094 2.08292 21.7892 2.1468 21.853C2.21067 21.9168 2.29062 21.9621 2.37816 21.9841C2.4657 22.0061 2.55756 22.004 2.644 21.978L6.997 20.658C7.31017 20.5628 7.59517 20.3921 7.827 20.161L21.174 6.812Z" stroke="var(--stroke-0, #0089C4)" stroke-linecap="round" stroke-linejoin="round"/>
<path id="Vector_2" d="M15 5L19 9" stroke="var(--stroke-0, #0089C4)" stroke-linecap="round" stroke-linejoin="round"/>
</g>
</svg>
